<svg xmlns="http://www.w3.org/2000/svg" width="900" height="520" viewBox="0 0 900 520">
<rect width="100%" height="100%" fill="white"/>
<text x="80" y="28" font-family="Arial" font-size="18">U(2,3) 400k ACE promotion: held-out collision wall</text>
<text x="20" y="70" font-family="Arial" font-size="12">AUC</text>
<line x1="80" y1="220" x2="860" y2="220" stroke="#222"/>
<line x1="80" y1="50" x2="80" y2="220" stroke="#222"/>
<circle cx="210.0" cy="51.6" r="5" fill="#333"/>
<text x="186.0" y="238.0" font-family="Arial" font-size="11">100k→200k</text>
<text x="192.0" y="43.6" font-family="Arial" font-size="10">0.990</text>
<circle cx="470.0" cy="51.6" r="5" fill="#333"/>
<text x="446.0" y="238.0" font-family="Arial" font-size="11">100k→300k</text>
<text x="452.0" y="43.6" font-family="Arial" font-size="10">0.990</text>
<circle cx="730.0" cy="51.6" r="5" fill="#333"/>
<text x="706.0" y="238.0" font-family="Arial" font-size="11">100k→400k</text>
<text x="712.0" y="43.6" font-family="Arial" font-size="10">0.990</text>
<text x="20" y="310" font-family="Arial" font-size="12">Depth wall</text>
<line x1="80" y1="450" x2="860" y2="450" stroke="#222"/>
<line x1="80" y1="290" x2="80" y2="450" stroke="#222"/>
<rect x="151.5" y="310.9" width="117.0" height="139.1" fill="#666"/>
<text x="151.5" y="305.9" font-family="Arial" font-size="10">3.58x</text>
<rect x="411.5" y="310.9" width="117.0" height="139.1" fill="#666"/>
<text x="411.5" y="305.9" font-family="Arial" font-size="10">3.58x</text>
<rect x="671.5" y="310.9" width="117.0" height="139.1" fill="#666"/>
<text x="671.5" y="305.9" font-family="Arial" font-size="10">3.59x</text>
<text x="80" y="500" font-family="Arial" font-size="12">Boundary: promoted empirical claim, not theorem.</text>
</svg>